<?xml version="1.0" encoding="UTF-8" standalone="no"?>
<svg
   xmlns:dc="http://purl.org/dc/elements/1.1/"
   xmlns:cc="http://creativecommons.org/ns#"
   xmlns:rdf="http://www.w3.org/1999/02/22-rdf-syntax-ns#"
   xmlns:svg="http://www.w3.org/2000/svg"
   xmlns="http://www.w3.org/2000/svg"
   xmlns:sodipodi="http://sodipodi.sourceforge.net/DTD/sodipodi-0.dtd"
   xmlns:inkscape="http://www.inkscape.org/namespaces/inkscape"
   id="Layer_1"
   data-name="Layer 1"
   viewBox="0 0 132.74803 162"
   version="1.1"
   sodipodi:docname="georgia-equality-vertical.svg"
   width="132.74803"
   height="162"
   inkscape:version="0.92.4 (5da689c313, 2019-01-14)">
  <metadata
     id="metadata333">
    <rdf:RDF>
      <cc:Work
         rdf:about="">
        <dc:format>image/svg+xml</dc:format>
        <dc:type
           rdf:resource="http://purl.org/dc/dcmitype/StillImage" />
        <dc:title></dc:title>
      </cc:Work>
    </rdf:RDF>
  </metadata>
  <sodipodi:namedview
     pagecolor="#ffffff"
     bordercolor="#666666"
     borderopacity="1"
     objecttolerance="10"
     gridtolerance="10"
     guidetolerance="10"
     inkscape:pageopacity="0"
     inkscape:pageshadow="2"
     inkscape:window-width="1920"
     inkscape:window-height="1001"
     id="namedview331"
     showgrid="false"
     inkscape:snap-page="false"
     fit-margin-top="0"
     fit-margin-left="0"
     fit-margin-right="0"
     fit-margin-bottom="0"
     inkscape:zoom="2.8055556"
     inkscape:cx="74.75"
     inkscape:cy="101.52011"
     inkscape:window-x="1991"
     inkscape:window-y="-9"
     inkscape:window-maximized="1"
     inkscape:current-layer="Layer_1" />
  <defs
     id="defs278">
    <style
       id="style276">.cls-1{fill:#172852;}.cls-2{fill:#101821;}.cls-3{fill:#826140;}.cls-4{fill:#ee4028;}.cls-5{fill:#f68c28;}.cls-6{fill:#f1e404;}.cls-7{fill:#318f44;}.cls-8{fill:#2a3b96;}.cls-9{fill:#852b90;}</style>
  </defs>
  <path
     class="cls-1"
     d="m 18.409448,124.88977 a 8.5590546,8.5590546 0 0 1 -6.960629,3.03937 C 4.7559054,127.92914 0,122.85039 0,116.25196 0,109.65354 4.7244094,104.60631 11.448819,104.60631 a 11.110237,11.110237 0 0 1 8.913386,4.1181 l -3.606299,2.41732 a 6.6141731,6.6141731 0 0 0 -5.307087,-2.41732 c -4.6614175,0 -7.0866144,3.76379 -7.0866144,7.49607 0,3.73227 2.4173228,7.49605 7.0866144,7.49605 3.937008,0 6.047243,-2.28346 6.692913,-5.1811 h -6.401575 v -3.79528 h 10.03937 v 12.74016 h -3.377953 z"
     id="path280"
     inkscape:connector-curvature="0"
     style="fill:#172852;stroke-width:0.78740162" />
  <path
     class="cls-1"
     d="M 39.82677,120.95275 H 27.732283 a 4.4724409,4.4724409 0 0 0 4.629921,3.34647 A 4.7244094,4.7244094 0 0 0 36,122.68505 l 3.283463,1.93701 a 8.5196849,8.5196849 0 0 1 -6.921259,3.30708 c -5.401575,0 -8.976378,-3.59843 -8.976378,-8.55118 a 8.2677169,8.2677169 0 0 1 8.338583,-8.55905 c 4.921261,0 8.84252,3.70078 8.102361,10.13384 z m -3.984251,-3.14961 a 3.8582676,3.8582676 0 0 0 -4.055118,-3.34645 4.0629921,4.0629921 0 0 0 -4.055118,3.34645 z"
     id="path282"
     inkscape:connector-curvature="0"
     style="fill:#172852;stroke-width:0.78740162" />
  <path
     class="cls-1"
     d="m 58.748031,119.37796 a 8.6062997,8.6062997 0 1 1 -8.661419,-8.55905 8.4645675,8.4645675 0 0 1 8.661419,8.55905 z m -4.181103,0 a 4.4330707,4.4330707 0 1 0 -4.440944,4.62991 4.3858267,4.3858267 0 0 0 4.440944,-4.62991 z"
     id="path284"
     inkscape:connector-curvature="0"
     style="fill:#172852;stroke-width:0.78740162" />
  <path
     class="cls-1"
     d="m 70.110234,110.81891 v 4.44094 c -4.82677,-0.58268 -5.440944,2.50393 -5.440944,5.51181 v 6.7244 h -4.086613 v -16.29134 h 4.086613 v 2.66929 a 6.4645668,6.4645668 0 0 1 5.440944,-3.0551 z"
     id="path286"
     inkscape:connector-curvature="0"
     style="fill:#172852;stroke-width:0.78740162" />
  <path
     class="cls-1"
     d="m 88.543304,111.20472 v 14.54332 c 0,4.56692 -3.055122,8.26771 -8.850387,8.26771 -3.346462,0 -6.370084,-1.38583 -7.71654,-3.28347 l 3.314961,-1.96063 c 0.606299,0.78741 2.086614,1.5748 4.275587,1.5748 3.149609,0 4.889772,-1.74014 4.889772,-4.92125 v -1.18897 a 5.9370078,5.9370078 0 0 1 -5.149607,2.50393 7.9763772,7.9763772 0 0 1 0,-15.95275 5.9370078,5.9370078 0 0 1 5.149607,2.50393 v -2.11811 z m -4.275593,7.59057 a 4.3464566,4.3464566 0 1 0 -4.34646,4.34644 4.1574802,4.1574802 0 0 0 4.34646,-4.34644 z"
     id="path288"
     inkscape:connector-curvature="0"
     style="fill:#172852;stroke-width:0.78740162" />
  <path
     class="cls-1"
     d="m 91.212597,106.63779 a 2.1732283,2.1732283 0 1 1 2.157475,2.1811 2.1574804,2.1574804 0 0 1 -2.157475,-2.1811 z m 0.133862,4.56693 H 95.4252 v 16.30709 h -4.078741 z"
     id="path290"
     inkscape:connector-curvature="0"
     style="fill:#172852;stroke-width:0.78740162" />
  <path
     class="cls-1"
     d="m 112.64566,117.66929 v 9.84252 h -4.08661 v -1.73227 c -0.78741,1.25195 -2.5748,2.1496 -4.76378,2.1496 -2.4488,0 -5.795267,-1.31496 -5.795267,-4.78741 0,-5.37795 6.629917,-5.37795 8.787407,-5.37795 h 1.77164 c -0.0394,-2.36221 -0.87401,-3.37795 -3.37794,-3.37795 a 6.4330707,6.4330707 0 0 0 -3.41733,1.18897 l -2.795273,-2.12599 a 9.7952755,9.7952755 0 0 1 6.787393,-2.63779 c 5.1811,0.008 6.88976,2.9685 6.88976,6.85827 z m -4.08661,2.66929 h -0.25983 c -2.92915,0 -6.11025,0 -6.11025,2.41732 0,1.22048 0.78741,2.22048 2.82677,2.22048 a 3.9370078,3.9370078 0 0 0 3.54331,-1.86614 z"
     id="path292"
     inkscape:connector-curvature="0"
     style="fill:#172852;stroke-width:0.78740162" />
  <path
     class="cls-1"
     d="M 55.338582,139.4803 V 162 h -4.086614 v -8.10237 a 6.2283463,6.2283463 0 0 1 -5.181102,2.31497 c -5.086616,0 -7.976379,-4.28346 -7.976379,-8.55905 0,-4.27559 2.889763,-8.55907 7.976379,-8.55907 a 6.1417322,6.1417322 0 0 1 5.181102,2.31496 v -1.92914 z m -4.251969,8.17325 c 0,-2.51182 -1.574804,-4.62992 -4.401574,-4.62992 -2.826772,0 -4.409449,2.1181 -4.409449,4.62992 0,2.51182 1.574803,4.62992 4.409449,4.62992 2.834644,0 4.401574,-2.1181 4.401574,-4.62992 z"
     id="path294"
     inkscape:connector-curvature="0"
     style="fill:#172852;stroke-width:0.78740162" />
  <path
     class="cls-1"
     d="m 72.456692,139.4803 v 16.31497 h -4.086615 v -1.99999 a 5.3307085,5.3307085 0 0 1 -4.724409,2.41732 c -4.118111,0 -5.984252,-3.34646 -5.984252,-6.78741 v -9.94489 h 4.086615 v 9.07088 c 0,2.09449 0.866141,3.6693 3.149605,3.6693 2.448819,0 3.480315,-1.76378 3.480315,-3.6693 v -9.07088 z"
     id="path296"
     inkscape:connector-curvature="0"
     style="fill:#172852;stroke-width:0.78740162" />
  <path
     class="cls-1"
     d="m 89.181101,145.94487 v 9.8504 h -4.07874 v -1.74016 c -0.787409,1.25197 -2.574804,2.15749 -4.763781,2.15749 -2.448818,0 -5.795275,-1.32283 -5.795275,-4.79528 0,-5.37007 6.62992,-5.37007 8.78741,-5.37007 h 1.771646 c -0.03942,-2.36221 -0.874015,-3.37796 -3.385831,-3.37796 a 6.4251968,6.4251968 0 0 0 -3.409444,1.18899 l -2.795277,-2.126 a 9.8267712,9.8267712 0 0 1 6.787397,-2.6378 c 5.181106,0 6.881895,2.96063 6.881895,6.85039 z m -4.07874,2.67719 h -0.259842 c -2.929141,0 -6.110237,0 -6.110237,2.40943 0,1.22047 0.787406,2.22048 2.82677,2.22048 a 3.8818897,3.8818897 0 0 0 3.543309,-1.86613 z"
     id="path298"
     inkscape:connector-curvature="0"
     style="fill:#172852;stroke-width:0.78740162" />
  <path
     class="cls-1"
     d="m 95.299212,133.2756 v 22.51967 H 91.212597 V 133.2756 Z"
     id="path300"
     inkscape:connector-curvature="0"
     style="fill:#172852;stroke-width:0.78740162" />
  <path
     class="cls-1"
     d="m 98.228338,134.91338 a 2.1732283,2.1732283 0 1 1 2.149612,2.18899 2.1574804,2.1574804 0 0 1 -2.149612,-2.18899 z m 0.125996,4.56692 h 4.086606 v 16.31497 h -4.055107 z"
     id="path302"
     inkscape:connector-curvature="0"
     style="fill:#172852;stroke-width:0.78740162" />
  <path
     class="cls-1"
     d="m 111.12599,143.2126 v 5.95276 c 0,1.86613 0.25983,2.96063 2.51181,2.96063 0.29134,0 0.67717,0 0.96062,-0.0629 v 3.73226 a 5.3622046,5.3622046 0 0 1 -1.70079,0.22049 c -4.1811,0 -5.85826,-2.79529 -5.85826,-6.17324 v -6.62992 h -2.31497 v -3.73229 h 2.31497 v -3.40944 h 4.08662 v 3.40944 h 3.47243 v 3.73229 z"
     id="path304"
     inkscape:connector-curvature="0"
     style="fill:#172852;stroke-width:0.78740162" />
  <path
     class="cls-1"
     d="M 132.74803,139.4803 123.83464,162 h -4.18111 l 2.99214,-7.17324 -6.75591,-15.34646 h 4.38584 l 4.21258,10.77954 3.82678,-10.77954 z"
     id="path306"
     inkscape:connector-curvature="0"
     style="fill:#172852;stroke-width:0.78740162" />
  <polygon
     class="cls-1"
     points="149.47,73.21 134.58,53.19 135.85,46.92 81.58,46.92 87.76,73.21 "
     id="polygon308"
     style="fill:#172852"
     transform="matrix(0.78740157,0,0,0.78740157,-54.527558,-36.944882)" />
  <polygon
     class="cls-1"
     points="156.84,159.93 160.91,159.93 160.91,148.49 171.58,150.62 184.13,119.54 94.59,119.36 99.17,149.81 155.87,154.31 "
     id="polygon310"
     style="fill:#172852"
     transform="matrix(0.78740157,0,0,0.78740157,-54.527558,-36.944882)" />
  <polygon
     class="cls-2"
     points="101.01,99.85 99.94,92.69 90.44,92.69 91.51,99.85 "
     id="polygon312"
     style="fill:#101821"
     transform="matrix(0.78740157,0,0,0.78740157,-54.527558,-36.944882)" />
  <polygon
     class="cls-3"
     points="110.51,99.85 109.43,92.69 99.93,92.69 101.01,99.85 "
     id="polygon314"
     style="fill:#826140"
     transform="matrix(0.78740157,0,0,0.78740157,-54.527558,-36.944882)" />
  <polygon
     class="cls-4"
     points="120.01,99.85 118.93,92.69 109.43,92.69 110.51,99.85 "
     id="polygon316"
     style="fill:#ee4028"
     transform="matrix(0.78740157,0,0,0.78740157,-54.527558,-36.944882)" />
  <polygon
     class="cls-5"
     points="129.51,99.85 128.43,92.69 118.93,92.69 120.01,99.85 "
     id="polygon318"
     style="fill:#f68c28"
     transform="matrix(0.78740157,0,0,0.78740157,-54.527558,-36.944882)" />
  <polygon
     class="cls-6"
     points="139.01,99.85 137.93,92.69 128.43,92.69 129.5,99.85 "
     id="polygon320"
     style="fill:#f1e404"
     transform="matrix(0.78740157,0,0,0.78740157,-54.527558,-36.944882)" />
  <polygon
     class="cls-7"
     points="148.5,99.85 147.43,92.69 137.93,92.69 139,99.85 "
     id="polygon322"
     style="fill:#318f44"
     transform="matrix(0.78740157,0,0,0.78740157,-54.527558,-36.944882)" />
  <polygon
     class="cls-8"
     points="158,99.85 156.93,92.69 147.43,92.69 148.5,99.85 "
     id="polygon324"
     style="fill:#2a3b96"
     transform="matrix(0.78740157,0,0,0.78740157,-54.527558,-36.944882)" />
  <polygon
     class="cls-9"
     points="169.24,99.85 163.91,92.68 156.93,92.69 158,99.85 "
     id="polygon326"
     style="fill:#852b90"
     transform="matrix(0.78740157,0,0,0.78740157,-54.527558,-36.944882)" />
  <path
     class="cls-1"
     d="m 35.897637,151.76377 v 4.07087 h -14.11811 v -22.59842 h 13.826772 v 4.06299 H 26.15748 v 5.10236 h 9.519684 v 4.07088 h -9.543306 v 5.29132 z"
     id="path328"
     inkscape:connector-curvature="0"
     style="fill:#172852;stroke-width:0.78740162" />
</svg>
